<?xml version="1.0" standalone="no"?>
<!DOCTYPE svg PUBLIC "-//W3C//DTD SVG 20010904//EN"
 "http://www.w3.org/TR/2001/REC-SVG-20010904/DTD/svg10.dtd">
<svg version="1.0" xmlns="http://www.w3.org/2000/svg"
 width="1079.000000pt" height="1079.000000pt" viewBox="0 0 1079.000000 1079.000000"
 preserveAspectRatio="xMidYMid meet">

<g transform="translate(0.000000,1079.000000) scale(0.100000,-0.100000)"
fill="#000000" stroke="none">
<path d="M5120 9523 c-112 -8 -376 -46 -490 -69 -119 -25 -156 -34 -332 -83
-111 -30 -321 -104 -401 -140 -38 -17 -75 -31 -83 -31 -8 0 -14 -4 -14 -10 0
-5 -5 -10 -11 -10 -17 0 -216 -97 -334 -163 -91 -50 -261 -158 -385 -244 -283
-195 -674 -583 -911 -905 -61 -82 -156 -224 -180 -268 -11 -19 -33 -57 -50
-85 -16 -27 -47 -84 -69 -126 -21 -43 -48 -93 -59 -112 -11 -19 -36 -75 -57
-123 -20 -49 -41 -94 -45 -99 -18 -24 -159 -431 -159 -458 0 -17 257 -11 380
8 301 47 504 57 634 30 170 -35 356 -135 356 -190 0 -32 -19 -36 -81 -14 -135
47 -223 64 -334 64 -113 0 -295 -29 -295 -47 0 -11 161 -88 235 -113 245 -82
581 -123 900 -110 94 3 178 3 188 0 38 -15 12 -51 -50 -67 -250 -65 -591 -75
-878 -27 -138 23 -185 33 -275 56 -154 40 -192 50 -258 73 -35 12 -65 20 -68
17 -3 -3 -1 -14 5 -25 15 -28 -2 -70 -34 -82 -73 -28 -121 76 -50 108 14 6 25
15 25 19 0 5 -44 29 -98 55 -107 51 -235 132 -280 178 l-30 29 -11 -27 c-14
-36 -57 -218 -76 -328 -97 -555 -80 -1146 50 -1680 31 -129 94 -341 115 -389
5 -11 25 -64 44 -117 20 -54 40 -106 45 -115 5 -10 36 -78 69 -151 34 -74 87
-181 119 -239 96 -173 308 -488 384 -571 8 -9 47 -55 86 -102 110 -133 333
-354 478 -474 39 -32 79 -65 90 -75 11 -9 54 -41 95 -71 41 -30 77 -57 80 -60
14 -15 252 -164 335 -210 67 -37 311 -160 365 -183 258 -112 470 -181 756
-247 143 -33 179 -39 369 -65 126 -17 315 -31 315 -23 0 3 -12 31 -26 62 -37
81 -36 192 1 266 56 110 156 170 283 170 142 0 255 -90 290 -233 18 -69 14
-115 -13 -182 -14 -33 -25 -63 -25 -67 0 -18 119 -8 372 33 444 71 959 257
1354 490 208 123 460 301 590 418 83 74 216 195 228 208 250 257 345 374 542
670 42 62 93 143 114 180 51 89 180 348 220 443 17 41 38 89 45 105 34 77 135
395 155 488 5 23 13 60 19 82 21 80 62 313 77 435 21 176 29 591 15 780 -16
216 -67 544 -102 658 -12 36 -32 41 -67 16 -90 -63 -332 -172 -480 -216 -338
-100 -713 -150 -973 -129 -74 6 -159 16 -189 22 -175 34 -220 52 -220 88 0 14
32 16 297 16 310 0 390 8 604 55 182 41 435 138 426 164 -7 21 -150 44 -275
45 -127 1 -194 -11 -349 -61 -67 -21 -83 -18 -83 13 0 51 167 145 330 185 97
24 116 26 250 20 80 -3 172 -10 205 -14 230 -33 425 -54 448 -48 26 6 28 10
22 39 -35 160 -183 518 -326 787 -98 184 -339 540 -439 650 -8 9 -40 45 -70
81 -135 159 -434 438 -605 564 -84 63 -323 225 -330 225 -3 0 -24 12 -48 27
-109 71 -352 191 -542 268 -349 141 -669 224 -1039 270 -176 22 -391 31 -400
16 -9 -14 -63 -15 -71 -1 -6 9 -225 11 -335 3z m435 -118 c35 -34 33 -78 -4
-116 -41 -41 -90 -40 -125 2 -30 35 -32 58 -11 99 17 33 27 38 78 39 28 1 45
-6 62 -24z m-15 -240 c64 -33 76 -117 24 -166 -20 -19 -37 -24 -76 -24 -43 0
-53 4 -74 30 -17 21 -24 43 -24 71 0 35 6 47 35 73 39 34 71 39 115 16z m480
-164 c19 -15 25 -29 25 -61 0 -51 -30 -80 -81 -80 -72 0 -103 82 -51 138 25
27 73 29 107 3z m-957 0 c36 -14 53 -70 33 -109 -17 -33 -34 -42 -76 -42 -46
0 -75 31 -75 80 0 66 51 96 118 71z m457 -160 c11 -22 15 -346 4 -374 -10 -28
-53 -21 -66 11 -17 41 -17 344 1 365 18 23 48 21 61 -2z m-324 -33 c61 -65
113 -180 134 -298 10 -54 9 -65 -4 -79 -12 -12 -21 -13 -33 -5 -21 13 -21 13
-79 164 -26 69 -58 141 -71 160 -52 78 -9 125 53 58z m681 6 c3 -8 -17 -63
-44 -122 -28 -59 -63 -145 -79 -190 -31 -91 -55 -116 -82 -88 -37 37 43 280
124 374 36 43 70 54 81 26z m643 -34 c10 -5 24 -26 30 -45 27 -83 -71 -141
-134 -79 -67 68 18 170 104 124z m-1945 -25 c32 -31 32 -66 -1 -104 -34 -41
-75 -42 -115 -2 -33 33 -35 50 -14 91 17 32 27 38 73 39 22 1 41 -7 57 -24z
m171 -106 c114 -64 242 -209 303 -343 35 -74 40 -121 15 -130 -23 -9 -38 6
-81 78 -93 155 -185 258 -301 336 -59 40 -74 67 -46 87 21 16 42 10 110 -28z
m1602 4 c2 -17 -13 -34 -72 -77 -125 -92 -228 -210 -302 -346 -30 -55 -59 -77
-79 -60 -47 39 90 283 220 394 123 105 225 144 233 89z m101 -188 c12 -26 12
-43 0 -130 -24 -168 -19 -218 30 -317 23 -47 50 -93 61 -103 11 -10 20 -22 20
-27 0 -5 20 -38 45 -73 73 -105 127 -233 154 -363 9 -46 20 -84 25 -85 5 -1
33 29 62 67 60 78 84 149 84 245 0 98 29 130 63 71 10 -16 22 -30 26 -30 5 0
12 33 17 73 8 68 10 72 34 72 21 0 28 -8 40 -45 13 -40 15 -42 18 -18 2 14 -2
45 -8 67 -12 47 -16 48 -117 27 -141 -30 -197 -53 -257 -106 -31 -27 -61 -50
-65 -50 -36 0 -29 68 14 130 53 76 143 127 283 159 92 21 142 40 174 68 9 8
27 13 40 11 20 -3 24 -10 29 -53 4 -27 19 -99 35 -160 20 -79 29 -134 29 -195
0 -77 -4 -92 -36 -160 -24 -51 -52 -90 -87 -122 -28 -27 -49 -48 -47 -48 2 0
95 20 207 45 209 45 333 83 380 116 30 22 74 25 81 7 2 -7 -2 -35 -10 -63 -37
-131 -46 -168 -68 -272 -50 -233 -84 -339 -151 -475 -155 -310 -392 -512 -729
-621 -135 -44 -174 -54 -248 -62 -91 -11 -88 -21 20 -61 368 -136 491 -168
730 -189 78 -7 313 13 313 26 0 23 -189 120 -283 144 -100 26 -227 45 -299 45
-72 0 -108 11 -108 34 0 57 188 98 360 77 131 -15 234 -53 500 -183 258 -126
297 -143 397 -178 65 -23 79 -39 63 -70 -10 -19 -48 -28 -257 -57 -177 -25
-663 -24 -793 1 -247 48 -525 161 -809 330 -52 31 -108 58 -125 61 -79 12
-265 38 -296 42 l-35 4 25 -18 c14 -9 55 -46 91 -82 53 -54 76 -87 121 -181
54 -112 110 -278 143 -430 9 -41 30 -105 47 -141 17 -37 28 -72 24 -78 -17
-27 -101 1 -216 74 -22 14 -42 25 -46 25 -3 0 -49 33 -102 73 -181 135 -327
298 -424 472 -43 77 -118 250 -118 274 0 30 -20 5 -40 -51 -130 -358 -379
-641 -724 -824 -102 -53 -159 -67 -169 -41 -3 7 12 48 33 90 37 77 55 138 85
297 31 162 90 311 162 408 14 18 48 51 76 74 l52 40 -45 -5 c-25 -3 -91 -10
-147 -16 -86 -8 -110 -15 -158 -43 -217 -127 -377 -206 -555 -273 -179 -67
-301 -93 -519 -107 -198 -12 -438 -2 -651 29 -155 22 -195 35 -195 64 0 19 10
27 50 43 137 53 250 104 456 205 125 61 265 122 315 137 169 50 408 42 484
-16 20 -16 23 -22 14 -37 -9 -14 -35 -20 -130 -30 -65 -7 -150 -19 -189 -27
-96 -19 -238 -74 -309 -120 -51 -34 -57 -40 -41 -49 10 -5 89 -12 177 -15 285
-9 407 19 920 210 39 14 27 25 -38 33 -120 15 -320 78 -444 140 -253 127 -407
282 -539 540 -73 142 -95 213 -161 510 -17 77 -42 175 -57 218 -23 73 -24 80
-9 95 15 15 21 14 78 -15 91 -46 131 -61 222 -82 89 -22 232 -51 285 -59 l35
-5 -47 54 c-68 78 -100 164 -99 264 0 49 9 109 22 155 11 41 26 109 32 150 6
41 16 81 21 88 13 17 46 9 91 -22 19 -13 79 -33 133 -46 54 -12 121 -33 149
-45 72 -32 161 -123 176 -180 7 -25 15 -45 19 -45 11 0 149 217 177 279 30 63
33 118 18 307 -10 123 -2 154 38 154 18 0 25 -8 34 -37 16 -53 59 -119 128
-194 97 -104 116 -148 115 -259 -1 -73 11 -89 39 -55 7 9 50 41 94 72 164 115
276 212 338 293 22 30 29 33 45 24 25 -15 29 -115 8 -207 -9 -38 -14 -71 -12
-73 7 -7 67 133 81 189 27 101 48 133 80 121 15 -6 22 -24 46 -134 12 -50 69
-184 76 -177 2 2 -4 25 -12 52 -22 69 -24 222 -4 235 26 17 39 11 65 -29 37
-60 97 -114 250 -227 77 -57 152 -112 167 -124 14 -11 29 -20 32 -20 3 0 6 30
6 68 0 117 21 161 137 287 34 38 72 89 84 114 46 100 70 114 98 56z m-2180
-194 c23 -23 18 -57 -11 -72 -45 -24 -91 24 -63 67 19 29 48 31 74 5z m2497
-20 c15 -30 10 -45 -20 -59 -46 -21 -89 41 -54 76 20 20 61 10 74 -17z m-2438
-103 c19 -19 14 -65 -9 -82 -50 -34 -114 30 -74 74 20 22 65 26 83 8z m2385
-20 c19 -25 19 -28 3 -52 -17 -27 -45 -33 -77 -16 -27 15 -25 64 4 85 29 20
45 16 70 -17z m-2321 -115 c21 -19 24 -71 6 -96 -36 -48 -128 -17 -128 44 0
58 78 92 122 52z m2258 2 c85 -44 18 -162 -67 -121 -29 14 -33 21 -33 54 0 44
21 69 68 81 2 1 16 -6 32 -14z m-3252 -167 c7 -7 12 -21 12 -33 0 -29 -19 -45
-52 -45 -36 0 -56 36 -39 69 13 23 59 29 79 9z m4230 -4 c26 -18 28 -46 6 -68
-37 -38 -93 -3 -80 49 5 20 14 27 46 34 3 0 16 -6 28 -15z m-4146 -96 c31 -24
27 -74 -7 -90 -41 -18 -75 3 -75 46 0 49 45 73 82 44z m4066 -10 c21 -21 14
-66 -14 -84 -24 -16 -27 -16 -52 3 -28 22 -32 54 -11 80 14 16 61 17 77 1z
m-3948 -108 c27 -27 25 -66 -5 -95 -30 -30 -54 -31 -89 -4 -31 24 -35 72 -9
101 22 24 77 24 103 -2z m3843 9 c30 -16 37 -28 37 -66 0 -35 -37 -73 -72 -73
-27 0 -68 45 -68 75 0 29 40 75 65 75 9 0 26 -5 38 -11z m-4603 -187 c28 -22
20 -58 -16 -74 -19 -9 -28 -8 -44 7 -34 31 -21 85 21 85 9 0 27 -8 39 -18z
m5348 -4 c14 -14 15 -47 3 -67 -21 -32 -91 -5 -91 35 0 35 62 58 88 32z
m-5211 -97 c32 -65 -63 -104 -97 -40 -9 16 -8 26 5 45 22 34 74 30 92 -5z
m5087 13 c19 -18 21 -65 4 -82 -7 -7 -24 -12 -38 -12 -33 0 -50 17 -50 49 0
50 52 78 84 45z m-4962 -78 c51 -38 18 -126 -47 -126 -41 0 -65 29 -65 77 0
53 68 83 112 49z m4850 -13 c41 -37 9 -123 -46 -123 -60 0 -95 68 -60 118 19
27 78 30 106 5z m-5347 -59 c63 -30 118 -54 122 -54 17 0 276 -106 347 -142
109 -54 153 -86 221 -160 62 -66 109 -153 103 -190 -6 -43 -36 -32 -112 42
-112 109 -192 161 -320 206 -41 15 -86 19 -86 7 0 -16 116 -157 174 -210 131
-123 269 -211 539 -348 129 -66 157 -84 157 -101 0 -12 -6 -24 -13 -27 -43
-17 -290 64 -469 153 -77 39 -211 122 -236 147 -7 7 -17 13 -20 13 -12 0 -183
169 -248 245 -105 122 -286 362 -315 418 -16 31 -18 42 -8 53 15 18 21 16 164
-52z m5943 45 c8 -43 -327 -471 -489 -624 -85 -80 -228 -179 -349 -240 -147
-75 -434 -167 -474 -152 -44 17 -14 41 165 134 288 151 404 227 535 355 90 88
173 193 161 205 -9 8 -94 -15 -156 -43 -82 -37 -168 -99 -248 -177 -71 -70
-95 -79 -109 -42 -10 25 22 95 70 156 87 111 219 191 481 292 201 77 233 91
295 123 68 35 113 40 118 13z m-6317 -286 c16 -44 -46 -84 -79 -51 -7 7 -12
25 -12 40 0 49 73 58 91 11z m6579 7 c25 -25 14 -61 -23 -74 -33 -12 -57 6
-57 45 0 46 46 63 80 29z m-6437 -52 c9 -7 19 -24 22 -38 12 -52 -56 -89 -94
-51 -26 26 -27 55 -1 81 23 23 49 26 73 8z m6285 -14 c45 -31 13 -99 -44 -92
-18 2 -34 13 -43 29 -13 24 -13 29 2 53 20 30 52 34 85 10z m-6094 -65 c51
-40 21 -119 -46 -119 -42 0 -68 25 -68 66 0 35 37 74 70 74 10 0 29 -9 44 -21z
m5919 -1 c28 -22 32 -69 7 -101 -41 -51 -120 -23 -120 43 0 56 68 91 113 58z
m619 -575 c38 -34 11 -103 -40 -103 -54 0 -81 62 -45 102 20 22 61 23 85 1z
m-7092 -203 c11 -11 20 -31 20 -45 0 -29 -32 -65 -58 -65 -57 0 -86 82 -40
114 30 21 54 20 78 -4z m7062 8 c45 -37 21 -108 -36 -108 -40 0 -59 20 -59 60
0 16 5 36 13 44 15 19 60 21 82 4z m-7012 -208 c27 -27 25 -56 -6 -86 -19 -20
-31 -24 -52 -19 -49 12 -66 64 -31 101 27 29 62 31 89 4z m6980 -12 c13 -25
13 -31 0 -55 -30 -54 -110 -34 -110 28 0 62 79 81 110 27z m-4495 -83 c47 -46
30 -125 -30 -145 -89 -29 -153 74 -90 143 34 36 86 37 120 2z m2000 -1 c31
-20 40 -64 21 -102 -46 -89 -178 -28 -145 66 17 48 78 66 124 36z m-4437 -90
c24 -16 29 -53 12 -85 -8 -14 -21 -19 -51 -19 -32 0 -41 4 -50 24 -29 63 33
119 89 80z m6858 8 c37 -24 36 -91 -1 -106 -69 -26 -126 43 -78 96 16 18 59
24 79 10z m-3322 -169 c20 -25 36 -51 36 -58 0 -6 -14 -30 -31 -53 -35 -48
-23 -56 33 -22 43 26 92 26 118 0 28 -28 25 -62 -7 -101 -15 -18 -23 -34 -18
-36 105 -35 152 -121 142 -265 -10 -154 -93 -258 -204 -258 -40 0 -100 30
-109 55 -9 23 -22 18 -39 -15 -56 -109 -208 -153 -330 -97 -90 43 -190 176
-157 209 13 13 64 -6 84 -30 19 -22 108 -62 141 -62 57 0 131 60 125 102 -3
20 -8 23 -43 22 -22 0 -54 -7 -72 -14 -30 -13 -34 -12 -58 10 -38 35 -66 85
-59 103 3 9 31 30 62 48 112 63 151 135 102 187 -47 50 -105 8 -124 -87 -14
-75 -57 -82 -109 -18 -48 59 -49 69 -18 120 66 103 199 152 301 111 30 -12 44
-13 54 -5 10 8 24 7 57 -4 63 -23 77 -12 34 26 -49 43 -59 64 -44 92 24 45 62
87 79 87 9 0 34 -21 54 -47z m-2150 16 c34 -27 32 -64 -5 -92 -28 -20 -57 -17
-84 9 -22 22 -18 52 10 79 30 31 45 31 79 4z m4096 1 c39 -39 12 -100 -44
-100 -40 0 -56 15 -56 54 0 59 59 87 100 46z m-5416 -21 c31 -25 34 -61 6 -89
-24 -24 -48 -25 -78 -4 -36 25 -25 92 18 107 24 9 26 8 54 -14z m6721 9 c57
-26 35 -108 -30 -108 -24 0 -39 7 -49 22 -23 32 -20 54 10 77 31 24 35 25 69
9z m-1369 -176 c29 -23 36 -47 22 -77 -24 -53 -118 -36 -118 23 0 32 8 45 35
60 27 15 36 15 61 -6z m1303 -8 c12 -15 21 -32 21 -39 0 -24 -41 -65 -65 -65
-31 0 -68 46 -59 74 18 59 69 73 103 30z m-6567 -1 c37 -33 7 -103 -44 -103
-29 0 -42 9 -57 37 -15 30 -14 40 9 63 24 24 67 26 92 3z m1292 1 c9 -8 16
-28 16 -44 0 -36 -23 -60 -57 -60 -55 0 -83 62 -46 102 20 22 66 24 87 2z
m-1192 -161 c25 -23 23 -68 -4 -87 -46 -32 -98 -10 -98 41 0 55 62 83 102 46z
m6374 -9 c38 -57 -29 -118 -85 -77 -32 25 -37 47 -17 78 23 36 79 35 102 -1z
m-5116 -9 c20 -21 22 -30 14 -52 -5 -15 -21 -34 -36 -42 -25 -14 -29 -14 -55
5 -36 27 -41 60 -12 90 29 31 59 30 89 -1z m3854 3 c21 -29 20 -57 -1 -80 -34
-38 -103 -11 -103 40 0 57 73 85 104 40z m-4986 -128 c27 -26 28 -64 2 -90
-25 -25 -51 -25 -80 -2 -43 35 -15 112 39 112 10 0 27 -9 39 -20z m6107 6 c21
-15 25 -67 5 -90 -19 -24 -76 -20 -94 6 -21 30 -20 54 4 78 23 23 58 26 85 6z
m-4905 -46 c40 -40 13 -100 -45 -100 -39 0 -55 16 -55 54 0 59 59 87 100 46z
m3710 0 c11 -11 20 -29 20 -40 0 -28 -35 -60 -65 -60 -29 0 -65 32 -65 58 0
55 70 82 110 42z m-4782 -96 c47 -33 17 -104 -44 -104 -59 0 -82 71 -35 107
22 17 52 16 79 -3z m5852 1 c16 -19 15 -71 -1 -91 -14 -17 -58 -18 -80 -1 -47
36 -24 107 35 107 18 0 39 -7 46 -15z m-4691 -81 c26 -33 27 -58 1 -84 -28
-28 -64 -25 -89 6 -27 34 -26 50 4 79 31 32 58 32 84 -1z m3531 6 c28 -28 25
-64 -6 -89 -34 -27 -50 -26 -79 4 -31 30 -32 58 -3 85 28 25 62 26 88 0z
m-4540 -50 c41 -41 13 -100 -46 -100 -23 0 -37 6 -44 19 -36 69 36 135 90 81z
m5554 -2 c21 -30 20 -54 -4 -78 -27 -27 -75 -26 -94 2 -32 46 -6 98 49 98 24
0 39 -7 49 -22z m-3324 -61 c0 -1 11 -32 24 -69 106 -290 437 -418 718 -277
70 35 164 134 202 212 19 40 37 80 40 90 7 23 33 32 51 17 19 -16 19 -86 0
-169 -41 -173 -178 -324 -355 -389 -55 -21 -83 -25 -185 -25 -109 0 -127 3
-190 28 -96 38 -161 82 -220 147 -91 99 -145 230 -145 349 0 73 6 89 36 89 13
0 24 -1 24 -3z m3170 -49 c36 -39 21 -90 -33 -102 -21 -5 -33 -1 -52 18 -32
32 -32 59 1 85 34 27 58 27 84 -1z m-5253 4 c7 -4 15 -22 19 -39 12 -59 -61
-97 -101 -53 -20 23 -23 63 -5 85 13 16 67 20 87 7z m951 -8 c34 -23 28 -84
-10 -102 -64 -30 -118 48 -68 98 24 24 48 25 78 4z m3344 -1 c22 -20 23 -61 1
-85 -34 -38 -103 -11 -103 40 0 54 62 81 102 45z m-4122 -105 c26 -28 26 -62
-2 -88 -26 -24 -46 -25 -76 -4 -15 10 -22 25 -22 46 0 62 59 89 100 46z m1796
14 c42 -28 35 -95 -13 -113 -22 -8 -32 -6 -52 9 -34 25 -38 58 -10 88 22 24
54 31 75 16z m1306 -9 c38 -34 11 -103 -40 -103 -53 0 -83 68 -46 104 20 21
63 20 86 -1z m1808 -5 c11 -12 20 -29 20 -38 0 -27 -38 -60 -70 -60 -52 0 -74
62 -38 108 16 19 65 14 88 -10z m-1670 -48 c67 -36 33 -131 -40 -115 -54 12
-62 85 -12 114 22 13 29 13 52 1z m754 -11 c32 -25 34 -61 5 -90 -27 -27 -67
-21 -92 13 -17 23 -19 31 -9 53 10 22 39 42 63 44 4 1 18 -8 33 -20z m-3826
-5 c24 -16 29 -53 12 -85 -8 -14 -21 -19 -50 -19 -29 0 -42 5 -50 19 -16 30
-12 59 10 81 24 24 48 25 78 4z m744 -1 c40 -36 9 -103 -47 -103 -26 0 -39 6
-51 25 -39 60 44 127 98 78z m740 0 c38 -34 11 -103 -41 -103 -34 0 -48 10
-59 41 -10 25 -1 56 22 71 19 13 59 9 78 -9z m3083 3 c42 -30 14 -106 -40
-106 -33 0 -65 28 -65 57 0 53 60 82 105 49z m-3255 -66 c11 -11 20 -31 20
-45 0 -29 -32 -65 -58 -65 -34 0 -62 29 -62 65 0 57 60 85 100 45z m1950 0
c24 -24 25 -48 4 -78 -30 -44 -114 -19 -114 35 0 30 34 63 65 63 14 0 34 -9
45 -20z m1136 -26 c9 -36 1 -57 -29 -74 -24 -13 -30 -13 -54 0 -31 17 -41 56
-24 89 21 38 96 28 107 -15z m-4214 19 c25 -30 29 -54 13 -79 -29 -45 -115
-22 -115 30 0 56 68 88 102 49z m918 -38 c35 -18 45 -46 29 -77 -23 -44 -66
-51 -99 -18 -28 28 -25 64 6 89 32 25 28 25 64 6z m2350 -5 c42 -42 7 -119
-48 -105 -40 10 -52 24 -52 61 0 56 61 83 100 44z m751 7 c40 -30 28 -100 -19
-112 -33 -8 -76 23 -80 58 -6 48 59 84 99 54z m-3839 -14 c24 -21 23 -58 -2
-83 -39 -39 -100 -14 -100 41 0 53 61 79 102 42z m3648 -13 c4 0 13 -13 20
-30 22 -54 -28 -102 -83 -81 -31 12 -44 50 -27 81 13 23 48 41 68 34 8 -2 17
-4 22 -4z m-3458 -17 c22 -20 23 -51 2 -81 -18 -26 -60 -29 -86 -5 -20 18 -24
73 -6 91 17 17 68 15 90 -5z m172 5 c74 -33 20 -138 -56 -109 -45 17 -45 84 0
110 22 13 26 13 56 -1z m191 -8 c22 -24 23 -67 2 -87 -36 -37 -107 -5 -107 48
0 52 70 78 105 39z m2745 1 c25 -47 -1 -101 -48 -101 -53 0 -83 68 -46 104 22
23 81 21 94 -3z m170 -1 c26 -26 25 -60 0 -88 -25 -26 -32 -27 -70 -7 -24 12
-30 22 -30 47 0 61 59 89 100 48z m-2803 -128 c6 -4 16 -19 22 -33 22 -59 -44
-106 -94 -67 -30 24 -32 61 -5 88 20 20 55 26 77 12z m2505 -9 c38 -34 11
-103 -40 -103 -53 0 -83 68 -46 104 20 21 63 20 86 -1z m-2977 -66 c20 -29 19
-53 -5 -77 -43 -43 -104 -11 -98 51 5 57 70 72 103 26z m3464 9 c29 -30 24
-63 -12 -90 -26 -19 -30 -19 -55 -5 -15 8 -31 27 -36 42 -8 22 -6 31 14 52 30
31 60 32 89 1z m-631 -84 c21 -27 15 -70 -13 -88 -49 -32 -106 11 -91 69 11
44 74 56 104 19z m-2198 -4 c23 -25 24 -31 9 -61 -15 -28 -28 -37 -58 -37 -52
0 -82 68 -45 104 22 23 70 20 94 -6z m1130 -103 c62 -59 64 -130 5 -193 -31
-35 -37 -37 -93 -37 -51 0 -65 4 -87 25 -56 53 -69 110 -37 169 40 75 152 94
212 36z m-986 4 c30 -23 33 -54 10 -87 -22 -31 -70 -26 -96 9 -19 25 -19 28
-4 57 14 26 26 35 57 41 4 0 18 -8 33 -20z m1899 -10 c23 -32 16 -62 -18 -85
-29 -19 -60 -11 -81 22 -20 30 -12 67 18 82 34 16 59 10 81 -19z m-2655 5 c25
-17 30 -61 10 -86 -19 -24 -61 -30 -86 -12 -45 31 -17 114 38 114 9 0 26 -7
38 -16z m3403 6 c22 -12 27 -78 7 -98 -21 -21 -75 -15 -92 10 -42 60 19 123
85 88z m-2483 -106 c29 -20 31 -79 3 -94 -49 -26 -101 -1 -101 47 0 54 52 79
98 47z m1565 4 c9 -7 19 -25 22 -40 14 -55 -63 -90 -105 -48 -53 53 22 133 83
88z m-1383 -88 c50 -50 -8 -128 -70 -97 -13 7 -28 25 -33 40 -8 24 -5 33 14
53 27 29 62 31 89 4z m1216 -5 c21 -32 11 -72 -22 -87 -58 -27 -114 35 -80 87
23 35 79 35 102 0z m-2256 -5 c56 -56 -24 -137 -87 -87 -7 5 -13 23 -13 40 0
60 59 88 100 47z m3294 -2 c21 -30 20 -54 -4 -78 -42 -42 -119 -7 -105 48 12
54 80 72 109 30z m-2075 -54 c27 -34 26 -52 -1 -81 -27 -29 -48 -29 -83 -2
-22 18 -26 27 -21 52 12 58 70 75 105 31z m855 4 c43 -61 -18 -123 -85 -88
-26 14 -27 84 -1 99 30 18 70 13 86 -11z m-656 -44 c55 -38 7 -130 -56 -108
-54 19 -60 86 -11 111 31 16 40 16 67 -3z m444 -1 c25 -22 24 -79 -1 -93 -69
-36 -135 36 -81 90 24 24 57 26 82 3z m-230 -30 c36 -32 11 -103 -36 -103 -34
0 -66 28 -66 57 0 55 62 83 102 46z m1573 -58 c14 -13 25 -32 25 -41 0 -25
-39 -64 -64 -64 -25 0 -66 38 -66 62 0 23 43 68 65 68 9 0 27 -11 40 -25z
m-3123 -2 c22 -20 24 -66 2 -87 -35 -36 -104 -7 -104 42 0 54 62 81 102 45z
m1558 -98 c41 -21 60 -53 60 -101 0 -48 -25 -85 -69 -104 -83 -34 -175 46
-151 131 22 76 93 109 160 74z m1460 -55 c40 -40 13 -110 -42 -110 -26 0 -58
36 -58 65 0 30 32 65 60 65 11 0 29 -9 40 -20z m-2918 -2 c27 -22 30 -53 7
-81 -52 -67 -142 1 -93 71 17 25 61 30 86 10z m114 -136 c26 -17 35 -51 22
-80 -18 -38 -79 -44 -102 -10 -21 30 -20 54 4 78 20 20 56 26 76 12z m2686 -9
c39 -35 11 -103 -43 -103 -36 0 -59 24 -59 60 0 54 61 80 102 43z m-152 -133
c54 -54 -12 -137 -76 -95 -45 29 -18 115 36 115 11 0 29 -9 40 -20z m-2361
-22 c29 -52 -28 -106 -84 -80 -33 15 -42 55 -20 88 23 35 83 31 104 -8z m1187
-52 c19 -19 34 -44 34 -57 0 -35 -36 -88 -65 -95 -108 -27 -174 84 -94 159 41
38 82 36 125 -7z m-1039 -44 c6 -4 17 -20 22 -35 27 -69 -65 -113 -105 -52
-34 52 31 120 83 87z m2045 -9 c38 -34 11 -103 -40 -103 -53 0 -83 68 -46 104
20 21 63 20 86 -1z m-1862 -103 c40 -40 13 -100 -45 -100 -54 0 -78 51 -44 93
25 32 61 35 89 7z m1700 -12 c13 -25 13 -31 0 -55 -21 -38 -81 -45 -104 -11
-20 28 -20 42 0 74 24 36 82 31 104 -8z m-1513 -80 c16 -13 17 -52 3 -79 -8
-14 -21 -19 -48 -19 -47 0 -62 14 -62 56 0 55 62 80 107 42z m1323 2 c24 -24
25 -48 4 -78 -32 -46 -114 -17 -114 40 0 26 36 58 65 58 14 0 34 -9 45 -20z
m-1102 -56 c48 -33 10 -121 -47 -108 -49 12 -66 59 -35 102 18 26 50 28 82 6z
m877 -8 c30 -45 -1 -96 -56 -96 -51 0 -77 63 -42 102 24 27 79 24 98 -6z
m-452 -7 c27 -12 47 -47 47 -80 0 -32 -53 -79 -90 -79 -39 0 -90 47 -90 83 0
14 12 39 26 56 28 33 63 40 107 20z m-203 -29 c39 -39 14 -100 -41 -100 -35 0
-72 44 -63 74 14 47 69 61 104 26z m435 -4 c21 -32 10 -75 -23 -87 -59 -23
-111 35 -78 86 23 35 79 35 101 1z m-214 -295 c59 -60 18 -141 -71 -141 -34 0
-80 49 -80 87 0 36 51 83 90 83 22 0 41 -9 61 -29z m104 -284 c62 -29 141 -98
177 -155 22 -36 58 -145 58 -178 0 -12 -7 -27 -16 -35 -21 -17 -41 -4 -65 42
-79 147 -257 230 -405 189 -94 -27 -206 -124 -229 -200 -9 -32 -34 -60 -52
-60 -40 0 -33 123 11 214 30 61 106 140 161 169 74 38 117 47 210 44 73 -2
101 -8 150 -30z"/>
<path d="M6240 8068 c-7 -18 -16 -60 -20 -93 -4 -33 -11 -70 -15 -81 -5 -16 4
-33 38 -70 24 -27 56 -62 70 -79 l25 -30 19 23 c16 20 22 22 47 12 16 -6 31
-8 34 -6 2 3 -11 29 -31 58 -52 80 -102 176 -123 241 -10 31 -21 57 -25 57 -4
0 -12 -15 -19 -32z"/>
<path d="M4679 8038 c-15 -57 -65 -158 -117 -236 -23 -35 -42 -68 -42 -73 0
-5 14 -2 31 6 24 13 34 14 45 4 22 -18 17 -33 -22 -81 -56 -66 -84 -115 -115
-200 -51 -140 -37 -325 37 -470 24 -47 31 -88 17 -88 -5 0 -14 -4 -22 -9 -11
-7 -11 -13 -1 -32 7 -13 16 -26 21 -29 19 -13 90 -154 110 -221 l23 -74 14 70
c18 92 54 207 86 277 30 66 31 68 12 68 -8 0 -24 12 -36 28 l-21 27 3 -64 c2
-52 0 -66 -14 -75 -23 -14 -45 -1 -80 50 -71 102 -118 249 -118 369 0 172 88
379 223 522 47 50 48 52 38 90 -6 21 -11 55 -11 76 0 42 -24 107 -39 107 -6 0
-15 -19 -22 -42z"/>
<path d="M5820 7948 c0 -7 23 -42 50 -77 28 -36 50 -68 50 -72 0 -16 -34 -27
-53 -17 -46 24 -22 -10 79 -114 134 -138 184 -203 241 -316 39 -76 44 -82 39
-48 -10 76 -120 271 -185 330 -19 18 -28 55 -16 68 13 12 56 -7 106 -48 29
-24 55 -41 57 -39 7 7 -69 104 -125 162 -46 47 -174 147 -220 172 -18 9 -23 9
-23 -1z"/>
<path d="M5063 7900 c-77 -51 -200 -165 -249 -231 -41 -56 -39 -76 4 -37 43
39 75 58 99 58 34 0 29 -33 -11 -77 -46 -53 -120 -169 -140 -223 -26 -73 -45
-140 -38 -140 4 0 25 39 46 86 49 107 117 199 240 323 53 54 96 101 96 104 0
4 -13 7 -30 7 -43 0 -39 25 15 94 69 89 62 97 -32 36z"/>
<path d="M5453 7891 c-46 -80 -159 -208 -265 -301 -60 -52 -123 -110 -141
-128 l-32 -33 42 7 c71 11 67 -15 -14 -99 -107 -112 -246 -307 -218 -307 3 0
45 39 94 88 48 48 128 124 177 170 49 45 109 109 134 142 45 60 70 77 91 64
12 -7 12 -8 -16 -249 -25 -226 -21 -232 45 -60 23 61 50 131 60 156 11 25 22
65 26 88 16 101 71 103 100 3 20 -70 133 -363 145 -377 14 -14 11 72 -8 223
-24 190 -23 226 2 230 15 2 34 -15 70 -64 49 -65 333 -339 343 -330 11 11 -79
130 -181 239 -38 40 -48 62 -35 75 8 8 20 7 46 -3 44 -19 45 -19 32 4 -5 11
-47 51 -92 88 -182 151 -275 251 -341 366 -16 26 -31 47 -35 47 -4 0 -17 -18
-29 -39z"/>
<path d="M3849 7879 c-6 -13 -13 -55 -15 -94 -3 -66 -3 -67 6 -22 10 59 34 97
59 97 25 0 31 -19 31 -93 0 -34 5 -69 10 -77 8 -13 10 -13 10 2 0 35 23 69 44
66 18 -3 23 -15 34 -97 18 -127 42 -186 103 -255 55 -61 69 -61 69 -2 0 48 30
147 71 235 21 46 39 87 39 91 0 5 -9 6 -21 3 -15 -4 -28 3 -49 28 -38 47 -108
83 -210 107 -150 37 -166 38 -181 11z"/>
<path d="M6350 7705 c0 -5 18 -44 39 -85 77 -151 100 -330 62 -480 -23 -93
-89 -218 -135 -257 -27 -23 -30 -23 -47 -7 -11 10 -19 31 -19 50 0 26 -4 32
-15 28 -17 -7 -20 -35 -6 -50 26 -26 82 -212 96 -318 8 -56 22 -51 36 14 15
66 75 189 123 250 62 80 64 84 28 66 -74 -38 -85 -7 -37 103 107 243 75 458
-100 666 -14 17 -25 26 -25 20z"/>
<path d="M6938 7314 c-3 -3 -41 -7 -84 -9 l-78 -3 -22 -70 c-20 -67 -36 -99
-80 -168 l-19 -29 40 25 c22 13 56 34 75 47 19 13 40 23 46 23 18 0 44 35 44
59 0 23 39 68 95 109 27 19 28 21 9 22 -11 0 -23 -3 -26 -6z"/>
<path d="M4054 7271 c46 -36 77 -82 70 -107 -4 -17 6 -26 68 -56 40 -20 74
-34 76 -33 2 2 -8 24 -22 48 -23 42 -37 84 -50 147 -5 24 -8 25 -91 26 l-86 2
35 -27z"/>
<path d="M7255 7230 c-152 -4 -226 -10 -240 -18 -17 -11 -13 -12 30 -8 165 19
224 19 250 2 35 -23 32 -39 -17 -77 -100 -76 -132 -137 -158 -297 -11 -64 -24
-133 -30 -152 -22 -76 -2 -43 60 100 77 176 141 289 200 352 41 42 63 58 82
58 15 0 30 -5 33 -10 3 -6 -16 -50 -44 -98 -35 -60 -69 -143 -111 -272 -33
-101 -60 -186 -60 -188 0 -12 30 32 57 83 44 85 77 167 138 345 29 85 56 163
60 173 5 13 3 17 -11 15 -11 -1 -118 -4 -239 -8z"/>
<path d="M3480 7215 c0 -13 84 -260 117 -345 25 -66 80 -179 104 -218 29 -46
27 -19 -5 76 -18 53 -45 135 -61 182 -15 47 -47 119 -71 161 -49 85 -56 119
-23 119 31 0 140 -114 184 -195 22 -38 67 -133 101 -210 76 -174 96 -215 105
-215 4 0 -4 26 -17 59 -13 32 -31 103 -39 157 -30 189 -60 250 -160 326 -56
42 -62 52 -45 73 10 12 43 15 154 16 218 1 118 17 -132 21 -137 2 -212 -1
-212 -7z"/>
<path d="M3975 7190 c3 -5 11 -10 16 -10 6 0 7 5 4 10 -3 6 -11 10 -16 10 -6
0 -7 -4 -4 -10z"/>
<path d="M5461 7089 c-27 -45 -70 -179 -80 -251 -14 -106 15 -277 40 -237 5 8
9 32 9 54 0 83 30 142 64 129 26 -10 35 -35 42 -123 8 -95 21 -100 46 -20 28
88 23 201 -12 308 -26 80 -71 171 -85 171 -3 0 -14 -14 -24 -31z"/>
<path d="M5852 7099 c1 -13 8 -23 13 -21 15 3 12 35 -3 40 -9 3 -13 -3 -10
-19z"/>
<path d="M5100 7090 c-9 -17 -8 -20 8 -20 11 0 22 9 25 20 3 13 0 20 -9 20 -7
0 -18 -9 -24 -20z"/>
<path d="M5855 6960 c11 -119 35 -260 50 -294 13 -30 13 -30 14 -5 1 14 -6 49
-15 78 -18 63 -12 101 16 101 31 0 59 -39 79 -110 10 -36 28 -101 40 -145 35
-124 94 -235 168 -315 128 -138 34 -147 -153 -14 -118 83 -244 248 -285 372
-12 35 -25 60 -29 55 -4 -4 -15 -33 -23 -63 -17 -57 -75 -161 -134 -239 -42
-55 -41 -67 16 -211 70 -173 128 -275 218 -387 52 -66 58 -71 133 -134 78 -65
140 -103 152 -91 13 13 -8 123 -39 202 -34 85 -71 140 -152 223 -59 60 -64 69
-53 87 6 11 12 21 12 23 0 2 -29 16 -65 32 -63 26 -93 54 -80 75 9 14 38 12
120 -5 223 -48 463 -60 603 -30 124 26 253 77 337 134 35 24 21 28 -23 6 -42
-21 -156 -45 -219 -45 -64 0 -99 12 -106 39 -4 18 -8 19 -37 8 -29 -11 -33
-10 -51 12 -11 13 -21 22 -22 20 -2 -2 -8 -16 -15 -31 -26 -61 -58 -26 -92 97
-43 154 -100 263 -187 355 -24 25 -43 50 -43 56 0 16 21 32 50 36 23 3 22 6
-25 38 -27 19 -76 60 -109 90 l-58 55 7 -75z"/>
<path d="M5089 6984 c-13 -15 -59 -53 -101 -86 -43 -32 -78 -61 -78 -65 0 -3
11 -2 24 1 32 8 56 -2 56 -23 0 -9 -21 -38 -45 -64 -87 -93 -132 -179 -180
-342 -14 -49 -30 -97 -34 -105 -12 -22 -43 -25 -57 -5 -12 15 -15 16 -35 2
-16 -12 -28 -13 -47 -6 -25 10 -35 4 -45 -26 -2 -5 -40 -11 -83 -13 -61 -3
-101 2 -163 18 -45 12 -84 20 -87 17 -6 -6 45 -36 122 -70 91 -40 219 -70 304
-71 73 -1 75 0 72 22 -2 16 14 41 58 90 101 109 142 196 199 416 33 123 54
158 96 153 27 -3 30 -36 10 -112 -10 -35 -15 -69 -13 -76 6 -17 31 71 46 161
18 102 25 210 15 210 -5 0 -20 -12 -34 -26z"/>
<path d="M6880 6977 c-89 -45 -155 -91 -215 -152 -58 -57 -118 -141 -113 -156
2 -5 35 20 73 56 87 82 238 185 271 185 35 0 40 -26 13 -64 -22 -30 -136 -154
-378 -409 -46 -48 -81 -91 -77 -94 3 -4 39 11 80 31 108 55 176 125 232 242
49 99 74 125 101 102 12 -10 14 -28 11 -87 -5 -73 -5 -74 13 -50 23 30 45 126
59 254 6 55 13 117 16 138 8 46 0 47 -86 4z"/>
<path d="M4024 6948 c4 -29 14 -105 21 -168 21 -177 65 -283 65 -158 0 70 16
105 43 95 10 -4 33 -41 53 -82 47 -102 93 -164 157 -213 56 -43 153 -95 167
-90 9 3 -96 122 -305 343 -68 72 -133 142 -145 158 -40 51 -9 83 53 54 49 -24
169 -116 242 -186 71 -69 84 -63 31 14 -75 110 -172 191 -298 250 -42 19 -80
35 -84 35 -3 0 -3 -24 0 -52z"/>
<path d="M5232 6670 c-6 -14 -19 -47 -28 -74 -56 -155 -220 -331 -394 -422
l-55 -29 44 -3 c48 -4 224 20 346 47 95 20 117 18 113 -12 -2 -16 -22 -31 -70
-55 -55 -27 -68 -38 -68 -57 0 -16 -16 -36 -52 -65 -108 -85 -179 -215 -199
-361 -14 -95 -5 -103 64 -57 147 98 255 220 357 404 53 95 150 314 150 338 0
7 -25 46 -56 87 -65 86 -100 152 -124 229 -16 52 -18 54 -28 30z"/>
<path d="M5509 5263 c0 -5 0 -31 1 -60 1 -34 -6 -68 -20 -99 -16 -37 -18 -49
-8 -56 25 -16 43 -2 75 61 18 35 41 74 53 86 27 29 26 33 -17 41 -21 3 -48 13
-60 20 -13 8 -23 11 -24 7z"/>
<path d="M5679 5073 c-17 -26 -47 -64 -66 -84 -30 -32 -33 -40 -24 -58 7 -12
18 -21 25 -21 7 0 23 -11 36 -25 58 -62 126 -4 136 117 6 75 -9 112 -48 116
-22 3 -32 -5 -59 -45z"/>
</g>
</svg>
